<svg xmlns="http://www.w3.org/2000/svg" xmlns:xlink="http://www.w3.org/1999/xlink" id="Layer_1" width="495.8" height="519" x="0" y="0" enable-background="new 0 0 495.8 519" version="1.1" viewBox="0 0 495.8 519" xml:space="preserve"><g><path fill="#FFF" d="M94.3,175.1v203.6H34.8V175.1H94.3 M128.3,141.1h-34H34.8h-34v34v203.6v34h34h59.5h34v-34V175.1V141.1 L128.3,141.1z"/></g><line x1="64.6" x2="64.6" y1="-12.1" y2="144.7" fill="none" stroke="#FFF" stroke-miterlimit="10" stroke-width="28"/><line x1="64.6" x2="64.6" y1="408.2" y2="516.1" fill="none" stroke="#FFF" stroke-miterlimit="10" stroke-width="28"/><g><path fill="#FFF" d="M461.4,153.8v168.5H402V153.8H461.4 M495.4,119.8h-34H402h-34v34v168.5v34h34h59.5h34v-34V153.8V119.8 L495.4,119.8z"/></g><line x1="431.7" x2="431.7" y1="-9" y2="127.6" fill="none" stroke="#FFF" stroke-miterlimit="10" stroke-width="28"/><line x1="431.7" x2="431.7" y1="354.9" y2="519" fill="none" stroke="#FFF" stroke-miterlimit="10" stroke-width="28"/><g><path fill="#FFF" d="M277.6,215.5v57.8h-59.5v-57.8H277.6 M311.6,181.5h-34h-59.5h-34v34v57.8v34h34h59.5h34v-34v-57.8V181.5 L311.6,181.5z"/></g><line x1="247.9" x2="247.9" y1="-9" y2="200" fill="none" stroke="#FFF" stroke-miterlimit="10" stroke-width="28"/><line x1="247.9" x2="247.9" y1="297.4" y2="519" fill="none" stroke="#FFF" stroke-miterlimit="10" stroke-width="28"/></svg>