<svg xmlns="http://www.w3.org/2000/svg" xmlns:xlink="http://www.w3.org/1999/xlink" id="Layer_1" width="24" height="24" x="0" y="0" enable-background="new 0 0 24 24" version="1.1" viewBox="0 0 24 24" xml:space="preserve"><rect width="23.667" height="23.667" x=".5" y=".5" fill="#FFF" stroke="#000" stroke-miterlimit="10" display="none"/><path fill="#999" d="M9.74,6.291c-3.153,0-5.71,2.556-5.71,5.709s2.557,5.709,5.71,5.709s5.709-2.556,5.709-5.709	S12.894,6.291,9.74,6.291z M9.74,16.134c-2.283,0-4.133-1.852-4.133-4.134c0-2.283,1.85-4.134,4.133-4.134	c2.279,0,4.133,1.851,4.133,4.134C13.873,14.282,12.022,16.134,9.74,16.134z"/><rect width="4.562" height="4" x=".552" y="10" fill="#999"/><rect width="4.661" height="4" x="13.88" y="10" fill="#999"/><circle cx="9.729" cy="11.999" r="2.152" fill="#999"/><path fill="#999" d="M17.597,13.906l0.001,3.448c0.194,0.194,0.508,0.193,0.702,0l5.004-5.005c0.193-0.193,0.194-0.508,0-0.7	L18.3,6.645c-0.195-0.193-0.508-0.193-0.702,0l-0.001,3.371"/></svg>