<svg xmlns="http://www.w3.org/2000/svg" xmlns:xlink="http://www.w3.org/1999/xlink" width="24" height="24" x="0" y="0" enable-background="new .25 -.417 24 24" overflow="visible" version="1.0" viewBox="0.25 -0.417 24 24" xml:space="preserve"><rect width="23.667" height="23.667" x=".5" y=".5" fill="#FFF" stroke="#000" stroke-miterlimit="10" display="none"/><path fill="#900" d="M16.967,13.248l-0.089-2.539c-0.148-0.138-0.378-0.129-0.517,0.019l-3.554,3.813	c-0.138,0.147-0.13,0.378,0.018,0.515l3.812,3.555c0.148,0.137,0.38,0.129,0.517-0.019l-0.086-2.482l5.238-0.904	c0.202-0.007,0.359-0.177,0.353-0.379l-0.043-0.459c-0.006-0.202-0.178-0.359-0.378-0.352L16.967,13.248z"/><path fill="#900" d="M16.601,6.746c0,0,0.074-2.328-0.636-3.038c-1.072-1.072-3.601-0.873-3.601-0.873	c-0.902-0.078-1.703,0.078-2.411,0.787l-6.686,6.685c-0.709,0.708-0.709,1.858,0,2.567l3.413,3.414c0.708,0.708,1.858,0.708,2.567,0	l6.686-6.686C16.642,8.894,16.598,7.493,16.601,6.746z M13.319,6.228c-0.442-0.442-0.442-1.158,0-1.601	c0.441-0.442,1.158-0.442,1.601,0c0.441,0.442,0.441,1.159,0,1.601C14.478,6.67,13.761,6.669,13.319,6.228z"/></svg>